<?xml version="1.0" encoding="UTF-8"?>
<svg id="a" data-name="Layer 1" xmlns="http://www.w3.org/2000/svg" viewBox="0 0 782.3 252.8">
  <g id="b" data-name="Layer 2">
    <g id="c" data-name="Layer 1-2">
      <line x1="64.7" y1="148.5" x2="64.5" y2="148.2" style="fill: none; stroke-width: 0px;"/>
      <g>
        <path d="m160,166.1l-.1-63.5-26.6,52.9h-4.8l-26.7-52.5v63.1h-10.1v-87.1h8.6l30.7,61.3,30.4-61.3h8.6l.1,87.2-10.1-.1h0Z" style="fill: #fff; isolation: isolate; opacity: .9; stroke-width: 0px;"/>
        <path d="m251.2,144.4h-39.2l-8.1,21.8h-10.8l33.4-87.2h10.5l33.5,87.2h-11.1l-8.2-21.8h0Zm-3.6-10l-15.9-42.7-15.9,42.7h31.8Z" style="fill: #fff; isolation: isolate; opacity: .9; stroke-width: 0px;"/>
        <path d="m341.4,166.1l-15.9-26.8c-2,.2-3.5.2-4.7.2h-18.2v26.5h-10.5v-87.1h28.7c9.5,0,17,2.7,22.5,8.1s8.2,12.8,8.2,22.3c0,6.7-1.4,12.5-4.2,17.2s-6.8,8.2-12,10.3l17.5,29.3h-11.4Zm-5.6-42.2c3.5-3.4,5.3-8.2,5.3-14.6s-1.8-11.1-5.3-14.5-8.6-5-15.2-5h-17.9v39.2h17.9c6.6,0,11.7-1.7,15.2-5.1Z" style="fill: #fff; isolation: isolate; opacity: .9; stroke-width: 0px;"/>
        <path d="m454.3,169c-2.4,3.3-5.2,5.9-8.3,7.6-3.2,1.8-6.6,2.6-10.2,2.6-4.6,0-9-1.3-13-3.9-4-2.6-8.6-7.1-13.8-13.4-7-.4-13.2-2.6-18.8-6.6s-9.9-9.3-13.1-15.9c-3.1-6.6-4.7-13.9-4.7-22s1.7-16,5.1-22.8c3.4-6.8,8.1-12.2,14.1-16,6-3.9,12.7-5.8,20.1-5.8s14,1.9,20,5.8,10.6,9.2,14,15.9c3.4,6.8,5,14.4,5,22.9,0,7.2-1.2,13.7-3.6,19.7s-5.8,11-10.2,15.1-9.4,6.9-15.1,8.5c2.5,3.1,4.8,5.3,7.1,6.6,2.3,1.4,4.6,2.1,7,2.1,5.2,0,9.7-2.5,13.5-7.5l4.9,7.1h0Zm-67.7-34.4c2.5,5.1,5.9,9.1,10.3,12,4.4,2.9,9.3,4.3,14.7,4.3s10.2-1.4,14.5-4.3c4.3-2.9,7.8-6.9,10.3-12s3.8-10.8,3.8-17.1-1.3-12-3.8-17.1-5.9-9.1-10.3-12c-4.3-2.9-9.2-4.4-14.5-4.4s-10.3,1.4-14.7,4.4c-4.4,2.9-7.8,6.9-10.3,12s-3.8,10.8-3.8,17.1,1.3,12,3.8,17.1Z" style="fill: #ba3326; isolation: isolate; opacity: .9; stroke-width: 0px;"/>
        <path d="m533.4,150.2v10.8h-53.5v-87.1h52v10.8h-41.5v26.8h36.9v10.6h-36.9v28.1h43Z" style="fill: #fff; isolation: isolate; opacity: .9; stroke-width: 0px;"/>
        <path d="m626,73.9v87.2h-8.6l-44.2-65v65h-10.5v-87.2h8.6l44.2,65v-65s10.5,0,10.5,0Z" style="fill: #fff; isolation: isolate; opacity: .9; stroke-width: 0px;"/>
        <path d="m674.8,84.7h-25.3v-10.8h60.9v10.8h-25.3v76.3h-10.4l.1-76.3h0Z" style="fill: #fff; isolation: isolate; opacity: .9; stroke-width: 0px;"/>
        <path d="m735.1,73.9h10.5v87.2h-10.5v-87.2Z" style="fill: #fff; isolation: isolate; opacity: .9; stroke-width: 0px;"/>
        <g>
          <path d="m49.5,78.7c-10.7,0-19.4,8.7-19.4,19.4s8.7,19.4,19.4,19.4,19.4-8.7,19.4-19.4-8.7-19.4-19.4-19.4Zm0,36.3c-9.3,0-16.9-7.6-16.9-16.9s7.6-16.9,16.9-16.9,16.9,7.6,16.9,16.9-7.6,16.9-16.9,16.9Z" style="fill: #fff; stroke-width: 0px;"/>
          <g>
            <path d="m48.4,104.1c-.7.4-2.1.7-3.9.7-4.1,0-7.3-2.6-7.3-7.4s3.1-7.7,7.7-7.7c1.8,0,3,.4,3.5.7l-.5,1.6c-.7-.4-1.8-.6-3-.6-3.4,0-5.7,2.2-5.7,6.1,0,3.6,2.1,5.9,5.7,5.9,1.2,0,2.3-.2,3.1-.6l.4,1.3h0Z" style="fill: #fff; stroke-width: 0px;"/>
            <path d="m53.2,99.9l-1.5,4.6h-2l5-14.7h2.3l5,14.7h-2l-1.6-4.6h-5.2Zm4.8-1.5l-1.4-4.2c-.3-1-.5-1.8-.8-2.7h0c-.2.9-.5,1.8-.7,2.7l-1.4,4.3,4.3-.1h0Z" style="fill: #fff; stroke-width: 0px;"/>
          </g>
        </g>
      </g>
    </g>
  </g>
</svg>